<svg xmlns="http://www.w3.org/2000/svg" xmlns:xlink="http://www.w3.org/1999/xlink" width="174" height="69" viewBox="0 0 174 69">
  <defs>
    <clipPath id="clip-path">
      <rect id="Rechteck_310" data-name="Rechteck 310" width="174" height="69" transform="translate(-0.4 -0.181)" fill="none"/>
    </clipPath>
    <clipPath id="clip-logo">
      <rect width="174" height="69"/>
    </clipPath>
  </defs>
  <g id="logo" clip-path="url(#clip-logo)">
    <g id="Gruppe_535" data-name="Gruppe 535" transform="translate(0.4 0.181)" clip-path="url(#clip-path)">
      <path id="Pfad_111" data-name="Pfad 111" d="M104.076,21.249V8.764a11.763,11.763,0,0,1,3.615-.557,3.7,3.7,0,0,1,2.784.784,3.11,3.11,0,0,1,.693,2.137V21.249h2.847V11.325a5.455,5.455,0,0,0-1.649-4.218,6.467,6.467,0,0,0-4.556-1.521,14.569,14.569,0,0,0-6.565,1.6V21.249Zm-10.294,0V8.855a19.582,19.582,0,0,1,4.668-.649V5.617a20.224,20.224,0,0,0-7.5,1.536v14.1ZM77.938,9.149a3.678,3.678,0,0,1,2.853-1,3.834,3.834,0,0,1,1.868.429,3.024,3.024,0,0,1,1.2,1.151,6.521,6.521,0,0,1,.618,1.424,7.306,7.306,0,0,1,.263,1.468H76.831a5.872,5.872,0,0,1,1.107-3.47M74.6,17.657a5.154,5.154,0,0,0,1.725,2.4,7.439,7.439,0,0,0,2.237,1.122,8.785,8.785,0,0,0,2.5.34h.092a13.678,13.678,0,0,0,5.376-1.01V17.951a11.414,11.414,0,0,1-5.317,1.143q-3.825,0-4.336-3.914h10.6c.059-.683.09-1.4.09-2.139a7.7,7.7,0,0,0-1.844-5.4,6.361,6.361,0,0,0-4.933-2.019h-.029q-6.793,0-6.792,8.132a10.754,10.754,0,0,0,.632,3.909M63.735,21.249Q62.561,24.8,60.649,24.8a7.482,7.482,0,0,1-1.733-.256v2.529a10.369,10.369,0,0,0,2.155.242h.015q3.132,0,4.773-4.428L72.184,5.859H69.157L65.092,17.394,60.95,5.859H57.924Zm-17.22-6.2a2.856,2.856,0,0,1,1.294-.8,11.283,11.283,0,0,1,1.462-.355,7.964,7.964,0,0,1,1.294-.113,17.861,17.861,0,0,1,2.681.2v2.5q0,2.516-3.494,2.515h-.044Q46,18.989,46,16.369a1.889,1.889,0,0,1,.513-1.324m-3.223,2.365a5.2,5.2,0,0,0,.475,1.294A4.331,4.331,0,0,0,44.8,20.058a5.615,5.615,0,0,0,1.928,1,10.538,10.538,0,0,0,5.9.015,5.266,5.266,0,0,0,1.9-.987,4.314,4.314,0,0,0,1-1.34,5.612,5.612,0,0,0,.468-1.258,5.042,5.042,0,0,0,.1-.987V12.062a6.294,6.294,0,0,0-1.746-4.781,6.9,6.9,0,0,0-4.954-1.664,13.013,13.013,0,0,0-4.653.828v2.41A13.222,13.222,0,0,1,49,8.086a4.841,4.841,0,0,1,3.185.844,3.769,3.769,0,0,1,1.061,2.786,21.241,21.241,0,0,0-2.8-.181,9.477,9.477,0,0,0-5.315,1.288A4.068,4.068,0,0,0,43.2,16.4a5.921,5.921,0,0,0,.09,1.01M29.94,8.764a8.552,8.552,0,0,1,3.3-.647A6.334,6.334,0,0,1,34.85,8.3a3.532,3.532,0,0,1,1.309.693,3.227,3.227,0,0,1,.971,1.6,9.515,9.515,0,0,1,.34,2.763,11.022,11.022,0,0,1-.34,2.966,3.475,3.475,0,0,1-.971,1.733,3.637,3.637,0,0,1-1.25.737,4.651,4.651,0,0,1-1.416.2q-3.553,0-3.554-2.3Zm-2.71,8.72a5.293,5.293,0,0,0,.46,1.265,4.308,4.308,0,0,0,1,1.34,5.291,5.291,0,0,0,1.884.987,9.276,9.276,0,0,0,2.92.414,9.565,9.565,0,0,0,1.71-.151A6.162,6.162,0,0,0,37,20.661a5.561,5.561,0,0,0,1.664-1.37,6.988,6.988,0,0,0,1.166-2.372,12.027,12.027,0,0,0,.475-3.561,10.721,10.721,0,0,0-.626-3.893,5.194,5.194,0,0,0-1.723-2.4,7.114,7.114,0,0,0-2.244-1.122,9.038,9.038,0,0,0-2.47-.324,12.046,12.046,0,0,0-3.3.452V0h-2.8V16.5a5.385,5.385,0,0,0,.09.979" transform="translate(24.429 0.045)" fill="#515455"/>
      <path id="Pfad_112" data-name="Pfad 112" d="M131.15,19.674h-2.83v15.39h2.83Zm-101.088,0h-2.83v15.39h2.83Zm-2.922-2.38h3.012V14.313H27.14Zm17.327,17.77h2.846V25.14a5.45,5.45,0,0,0-1.649-4.216A6.463,6.463,0,0,0,41.108,19.4,14.6,14.6,0,0,0,34.543,21V35.064h2.83V22.58a11.715,11.715,0,0,1,3.615-.557,3.713,3.713,0,0,1,2.786.782,3.116,3.116,0,0,1,.693,2.139Zm17.251,0h2.847V25.14a5.45,5.45,0,0,0-1.649-4.216A6.467,6.467,0,0,0,58.361,19.4,14.591,14.591,0,0,0,51.8,21V35.064h2.83V22.58a11.706,11.706,0,0,1,3.615-.557,3.708,3.708,0,0,1,2.784.782,3.116,3.116,0,0,1,.693,2.139Zm17.945-7.68a10.014,10.014,0,0,1-.34,2.853A3.268,3.268,0,0,1,78.308,31.9a3.718,3.718,0,0,1-1.37.723,7.869,7.869,0,0,1-3.359,0,3.718,3.718,0,0,1-1.37-.723,3.27,3.27,0,0,1-1.017-1.664,10.091,10.091,0,0,1-.338-2.853,10.091,10.091,0,0,1,.338-2.853,3.27,3.27,0,0,1,1.017-1.664,3.689,3.689,0,0,1,1.37-.723,7.869,7.869,0,0,1,3.359,0,3.69,3.69,0,0,1,1.37.723,3.268,3.268,0,0,1,1.015,1.664,10.014,10.014,0,0,1,.34,2.853m2.2,3.983a10.842,10.842,0,0,0,.647-3.983,10.842,10.842,0,0,0-.647-3.983A5.378,5.378,0,0,0,80.1,20.954,7.355,7.355,0,0,0,77.818,19.8a9.871,9.871,0,0,0-5.12,0,7.347,7.347,0,0,0-2.281,1.153A5.378,5.378,0,0,0,68.655,23.4a10.842,10.842,0,0,0-.647,3.983,10.842,10.842,0,0,0,.647,3.983,5.378,5.378,0,0,0,1.762,2.447A7.388,7.388,0,0,0,72.7,34.966a9.871,9.871,0,0,0,5.12,0A7.4,7.4,0,0,0,80.1,33.814a5.378,5.378,0,0,0,1.762-2.447m10.936,3.7,5.918-15.39H95.7l-4.351,12-4.323-12H84.018l5.888,15.39Zm17.676-4.773q0,2.513-3.493,2.515h-.046q-3.7,0-3.7-2.62a1.892,1.892,0,0,1,.511-1.326,2.869,2.869,0,0,1,1.3-.8,11.163,11.163,0,0,1,1.46-.353,7.787,7.787,0,0,1,1.3-.115,18.332,18.332,0,0,1,2.679.2Zm2.748,1.015a5.025,5.025,0,0,0,.1-.985V25.878a6.292,6.292,0,0,0-1.748-4.781,6.892,6.892,0,0,0-4.954-1.664,12.986,12.986,0,0,0-4.653.828V22.67a13.268,13.268,0,0,1,4.262-.767,4.827,4.827,0,0,1,3.185.844,3.757,3.757,0,0,1,1.061,2.784,21.194,21.194,0,0,0-2.8-.179,9.5,9.5,0,0,0-5.317,1.286,4.075,4.075,0,0,0-1.928,3.576,5.725,5.725,0,0,0,.092,1.01,5.12,5.12,0,0,0,.473,1.3,4.33,4.33,0,0,0,1.032,1.355,5.565,5.565,0,0,0,1.928,1,10.539,10.539,0,0,0,5.9.015,5.283,5.283,0,0,0,1.9-.985,4.3,4.3,0,0,0,1-1.342,5.591,5.591,0,0,0,.466-1.258m9.7,4a5.616,5.616,0,0,0,2.109-.422V32.354a3.368,3.368,0,0,1-1.792.452h-.031q-2.273,0-2.273-1.807V22.054h4.1v-2.38h-4.1V15.08h-2.817v4.594h-2.679v2.38h2.679V30.8a4.805,4.805,0,0,0,.573,2.447,3.23,3.23,0,0,0,1.452,1.386,7.6,7.6,0,0,0,1.513.534,5.615,5.615,0,0,0,1.191.136Zm5.306-18.01h3.012V14.313H128.23ZM149,19.674H145.99l-4.351,12-4.323-12H134.3l5.888,15.39h2.891Z" transform="translate(24.429 13.048)" fill="#515455"/>
      <path id="Pfad_113" data-name="Pfad 113" d="M143.2,36.669a5.977,5.977,0,0,0-.139-1.389,2.74,2.74,0,0,0-.46-1.008,2.306,2.306,0,0,0-.838-.687,2.864,2.864,0,0,0-1.279-.258,2.733,2.733,0,0,0-1.286.334,4.655,4.655,0,0,0-1.279,1.05v-1a.222.222,0,0,0-.029-.115.287.287,0,0,0-.1-.084.5.5,0,0,0-.191-.05,3.584,3.584,0,0,0-.618,0,.556.556,0,0,0-.195.05.22.22,0,0,0-.1.084.241.241,0,0,0-.025.115V41.3a.213.213,0,0,0,.029.115.238.238,0,0,0,.111.08.823.823,0,0,0,.214.05,2.746,2.746,0,0,0,.338.017,2.816,2.816,0,0,0,.345-.017.788.788,0,0,0,.212-.05.278.278,0,0,0,.109-.08.185.185,0,0,0,.034-.115V35.993a5.62,5.62,0,0,1,1.1-1.088,1.791,1.791,0,0,1,1.046-.372,1.589,1.589,0,0,1,.712.153,1.28,1.28,0,0,1,.5.439,2.127,2.127,0,0,1,.3.683,4.4,4.4,0,0,1,.1,1.046V41.3a.185.185,0,0,0,.034.115.265.265,0,0,0,.109.08.769.769,0,0,0,.212.05,2.817,2.817,0,0,0,.345.017,2.767,2.767,0,0,0,.338-.017.754.754,0,0,0,.21-.05.273.273,0,0,0,.111-.08.2.2,0,0,0,.032-.115Zm-14.232.092a3.08,3.08,0,0,1,.162-.889,2.329,2.329,0,0,1,.407-.746,1.976,1.976,0,0,1,.653-.515,2.015,2.015,0,0,1,.908-.195,1.862,1.862,0,0,1,1.525.624,2.542,2.542,0,0,1,.487,1.721Zm5.542.16a5,5,0,0,0-.189-1.4,3.123,3.123,0,0,0-.6-1.139,2.906,2.906,0,0,0-1.033-.773,3.664,3.664,0,0,0-1.523-.286,3.772,3.772,0,0,0-1.512.292,3.191,3.191,0,0,0-1.151.834,3.735,3.735,0,0,0-.729,1.324,5.66,5.66,0,0,0-.254,1.76,6.05,6.05,0,0,0,.244,1.805,3.336,3.336,0,0,0,.727,1.29,3.027,3.027,0,0,0,1.185.777,4.712,4.712,0,0,0,1.639.261,6.14,6.14,0,0,0,1.017-.08,8.524,8.524,0,0,0,.84-.181,4.081,4.081,0,0,0,.59-.208,1.231,1.231,0,0,0,.275-.151.518.518,0,0,0,.076-.1.43.43,0,0,0,.042-.115c.008-.042.015-.09.021-.143a1.833,1.833,0,0,0,.008-.189,1.982,1.982,0,0,0-.013-.258.563.563,0,0,0-.038-.164.187.187,0,0,0-.071-.09.2.2,0,0,0-.107-.029.838.838,0,0,0-.3.088c-.132.059-.3.126-.508.2a5.829,5.829,0,0,1-.733.2,4.752,4.752,0,0,1-.968.088,3.069,3.069,0,0,1-1.16-.193,1.9,1.9,0,0,1-.771-.557,2.175,2.175,0,0,1-.424-.868,4.633,4.633,0,0,1-.128-1.139h5a.56.56,0,0,0,.376-.139.58.58,0,0,0,.166-.468Zm-10.153,1.691a3.252,3.252,0,0,1-.34.937,1.941,1.941,0,0,1-.607.67,1.562,1.562,0,0,1-.9.254,1.885,1.885,0,0,1-1.094-.366,5.731,5.731,0,0,1-1.1-1.067V36.01a6.326,6.326,0,0,1,.622-.7,4.139,4.139,0,0,1,.565-.456,1.956,1.956,0,0,1,.534-.252,1.894,1.894,0,0,1,.534-.076,1.534,1.534,0,0,1,.908.258,1.865,1.865,0,0,1,.586.679,3.214,3.214,0,0,1,.311.97,7.054,7.054,0,0,1,.088,1.13,5.222,5.222,0,0,1-.1,1.05m1.38-2.779a3.9,3.9,0,0,0-.536-1.3,2.754,2.754,0,0,0-.952-.88,2.849,2.849,0,0,0-1.414-.33,2.9,2.9,0,0,0-.641.069,2.747,2.747,0,0,0-.607.214,4.063,4.063,0,0,0-.62.384,5.816,5.816,0,0,0-.653.582V30.029a.205.205,0,0,0-.034-.118.247.247,0,0,0-.111-.084.746.746,0,0,0-.21-.052,2.837,2.837,0,0,0-.345-.017,2.744,2.744,0,0,0-.338.017.831.831,0,0,0-.216.052.213.213,0,0,0-.109.084.219.219,0,0,0-.031.118V41.3a.257.257,0,0,0,.027.118.166.166,0,0,0,.1.08.925.925,0,0,0,.193.046,2.048,2.048,0,0,0,.288.017,2.021,2.021,0,0,0,.29-.017.914.914,0,0,0,.189-.046.218.218,0,0,0,.111-.08.205.205,0,0,0,.034-.118v-.928a6.9,6.9,0,0,0,.624.59,3.631,3.631,0,0,0,.59.406,2.38,2.38,0,0,0,.6.231,2.971,2.971,0,0,0,.672.073,3.145,3.145,0,0,0,1.391-.3,2.8,2.8,0,0,0,1.025-.851,3.955,3.955,0,0,0,.632-1.345A6.7,6.7,0,0,0,125.9,37.4a7.047,7.047,0,0,0-.168-1.569m-14.51.928a3.144,3.144,0,0,1,.16-.889,2.37,2.37,0,0,1,.408-.746,1.976,1.976,0,0,1,.653-.515,2.009,2.009,0,0,1,.908-.195,1.856,1.856,0,0,1,1.523.624,2.533,2.533,0,0,1,.489,1.721Zm5.542.16a4.93,4.93,0,0,0-.191-1.4,3.092,3.092,0,0,0-.594-1.139,2.914,2.914,0,0,0-1.034-.773,3.652,3.652,0,0,0-1.523-.286,3.77,3.77,0,0,0-1.51.292,3.159,3.159,0,0,0-1.151.834,3.739,3.739,0,0,0-.731,1.324,5.719,5.719,0,0,0-.252,1.76,6.05,6.05,0,0,0,.244,1.805,3.309,3.309,0,0,0,.725,1.29,3.055,3.055,0,0,0,1.185.777,4.723,4.723,0,0,0,1.641.261,6.157,6.157,0,0,0,1.017-.08,8.358,8.358,0,0,0,.838-.181,4.117,4.117,0,0,0,.592-.208,1.2,1.2,0,0,0,.273-.151.4.4,0,0,0,.076-.1.372.372,0,0,0,.042-.115,1.273,1.273,0,0,0,.021-.143,1.778,1.778,0,0,0,.01-.189,2.4,2.4,0,0,0-.013-.258.563.563,0,0,0-.038-.164.19.19,0,0,0-.073-.09.192.192,0,0,0-.1-.029.828.828,0,0,0-.3.088c-.134.059-.3.126-.508.2a5.867,5.867,0,0,1-.735.2,4.732,4.732,0,0,1-.966.088,3.055,3.055,0,0,1-1.16-.193,1.915,1.915,0,0,1-.773-.557,2.227,2.227,0,0,1-.424-.868,4.732,4.732,0,0,1-.126-1.139h5a.564.564,0,0,0,.376-.139.58.58,0,0,0,.166-.468Zm-9.086-6.891a.206.206,0,0,0-.034-.118.251.251,0,0,0-.109-.084.78.78,0,0,0-.212-.052,2.815,2.815,0,0,0-.345-.017,2.743,2.743,0,0,0-.338.017.831.831,0,0,0-.216.052.213.213,0,0,0-.109.084.237.237,0,0,0-.031.118V41.3a.213.213,0,0,0,.031.115.231.231,0,0,0,.109.08.839.839,0,0,0,.216.05,2.745,2.745,0,0,0,.338.017,2.816,2.816,0,0,0,.345-.017.788.788,0,0,0,.212-.05.279.279,0,0,0,.109-.08.186.186,0,0,0,.034-.115Zm-7.907,6.64a5.976,5.976,0,0,0-.139-1.389,2.74,2.74,0,0,0-.46-1.008,2.306,2.306,0,0,0-.838-.687,2.864,2.864,0,0,0-1.279-.258,2.733,2.733,0,0,0-1.286.334,4.656,4.656,0,0,0-1.279,1.05v-1a.222.222,0,0,0-.029-.115.27.27,0,0,0-.1-.084.5.5,0,0,0-.189-.05,2.784,2.784,0,0,0-.309-.013,2.709,2.709,0,0,0-.311.013.556.556,0,0,0-.195.05.22.22,0,0,0-.1.084.241.241,0,0,0-.025.115V41.3a.212.212,0,0,0,.029.115.238.238,0,0,0,.111.08.823.823,0,0,0,.214.05,2.745,2.745,0,0,0,.338.017,2.817,2.817,0,0,0,.345-.017.787.787,0,0,0,.212-.05.265.265,0,0,0,.109-.08.186.186,0,0,0,.034-.115V35.993a5.619,5.619,0,0,1,1.1-1.088,1.792,1.792,0,0,1,1.046-.372,1.589,1.589,0,0,1,.712.153,1.28,1.28,0,0,1,.5.439,2.126,2.126,0,0,1,.3.683,4.4,4.4,0,0,1,.1,1.046V41.3a.186.186,0,0,0,.034.115.265.265,0,0,0,.109.08.769.769,0,0,0,.212.05,2.816,2.816,0,0,0,.345.017,2.767,2.767,0,0,0,.338-.017.754.754,0,0,0,.21-.05.272.272,0,0,0,.111-.08.2.2,0,0,0,.032-.115Zm-10.2,2.05a2.678,2.678,0,0,1-.426.945,1.953,1.953,0,0,1-.74.615,2.716,2.716,0,0,1-2.187-.021,1.922,1.922,0,0,1-.72-.649,2.818,2.818,0,0,1-.384-.958A5.717,5.717,0,0,1,85,37.478a4.835,4.835,0,0,1,.141-1.2,2.789,2.789,0,0,1,.429-.949,1.967,1.967,0,0,1,.737-.62,2.415,2.415,0,0,1,1.069-.219,2.364,2.364,0,0,1,1.122.24,1.867,1.867,0,0,1,.716.655,2.848,2.848,0,0,1,.378.962,5.548,5.548,0,0,1,.116,1.164,4.973,4.973,0,0,1-.137,1.206m1.347-3.012a3.48,3.48,0,0,0-.7-1.292,2.984,2.984,0,0,0-1.158-.809,4.4,4.4,0,0,0-1.634-.279,4.256,4.256,0,0,0-1.695.313,3.26,3.26,0,0,0-1.21.876,3.724,3.724,0,0,0-.727,1.345,5.786,5.786,0,0,0-.24,1.71,5.954,5.954,0,0,0,.229,1.72,3.431,3.431,0,0,0,.691,1.292,2.991,2.991,0,0,0,1.16.809,4.386,4.386,0,0,0,1.632.279,4.229,4.229,0,0,0,1.691-.317,3.321,3.321,0,0,0,1.216-.882,3.753,3.753,0,0,0,.729-1.345,5.649,5.649,0,0,0,.244-1.708,5.851,5.851,0,0,0-.231-1.712m-9.466-5.218a.971.971,0,0,0-.67-.174.993.993,0,0,0-.683.177.914.914,0,0,0-.187.666.9.9,0,0,0,.183.655.982.982,0,0,0,.67.172,1.007,1.007,0,0,0,.683-.176.92.92,0,0,0,.185-.668.9.9,0,0,0-.181-.653m-5.3,3V31.682a.188.188,0,0,0-.034-.109.277.277,0,0,0-.109-.09.693.693,0,0,0-.212-.053,3.4,3.4,0,0,0-.683,0,.739.739,0,0,0-.214.053.259.259,0,0,0-.111.09.216.216,0,0,0-.029.109v1.805H73.706a.242.242,0,0,0-.122.031.212.212,0,0,0-.088.1.705.705,0,0,0-.055.181,1.51,1.51,0,0,0-.021.269.93.93,0,0,0,.076.439.228.228,0,0,0,.2.136h1.063v4.437a4.693,4.693,0,0,0,.122,1.143,1.97,1.97,0,0,0,.391.8,1.638,1.638,0,0,0,.693.471,2.9,2.9,0,0,0,1.011.156,3.333,3.333,0,0,0,.389-.025c.128-.017.25-.038.366-.065a1.716,1.716,0,0,0,.307-.1.618.618,0,0,0,.2-.132.442.442,0,0,0,.1-.21,1.693,1.693,0,0,0,.034-.386,1.532,1.532,0,0,0-.017-.252.9.9,0,0,0-.038-.16.128.128,0,0,0-.059-.08.167.167,0,0,0-.08-.021.351.351,0,0,0-.151.038c-.057.025-.124.052-.2.08s-.17.053-.271.08a1.449,1.449,0,0,1-.345.038.877.877,0,0,1-.83-.4,2.413,2.413,0,0,1-.233-1.185V34.644h3.922V41.3a.186.186,0,0,0,.034.115.276.276,0,0,0,.115.08.82.82,0,0,0,.216.05,2.816,2.816,0,0,0,.345.017,2.643,2.643,0,0,0,.328-.017.84.84,0,0,0,.216-.05.275.275,0,0,0,.115-.08.2.2,0,0,0,.032-.115V33.934a.522.522,0,0,0-.092-.332.431.431,0,0,0-.347-.115Zm-5.535,5.964a4.386,4.386,0,0,1-.983.853,1.956,1.956,0,0,1-1.017.279,1.484,1.484,0,0,1-1.05-.351,1.223,1.223,0,0,1-.376-.941,1.356,1.356,0,0,1,.132-.611,1.188,1.188,0,0,1,.408-.456,2.085,2.085,0,0,1,.7-.286,4.479,4.479,0,0,1,1-.1h1.189ZM72,36.188a4.311,4.311,0,0,0-.16-1.241,2.094,2.094,0,0,0-.515-.889,2.236,2.236,0,0,0-.928-.546,4.6,4.6,0,0,0-1.391-.185,4.728,4.728,0,0,0-.868.08,6.016,6.016,0,0,0-.794.2,4.237,4.237,0,0,0-.641.271,1.711,1.711,0,0,0-.391.258.485.485,0,0,0-.145.231,1.535,1.535,0,0,0-.029.334,1.441,1.441,0,0,0,.017.231.5.5,0,0,0,.055.174.288.288,0,0,0,.088.1.205.205,0,0,0,.118.034.712.712,0,0,0,.307-.124q.206-.12.515-.269a4.859,4.859,0,0,1,.718-.269,3.194,3.194,0,0,1,.924-.122,2.492,2.492,0,0,1,.809.113,1.3,1.3,0,0,1,.536.338,1.321,1.321,0,0,1,.3.561,2.888,2.888,0,0,1,.094.777v.59H69.572a7.368,7.368,0,0,0-1.594.157,3.665,3.665,0,0,0-1.2.468,2.165,2.165,0,0,0-.75.784,2.254,2.254,0,0,0-.261,1.115,2.406,2.406,0,0,0,.189.977,2.008,2.008,0,0,0,.531.725,2.344,2.344,0,0,0,.828.452,3.548,3.548,0,0,0,1.084.157,2.947,2.947,0,0,0,1.294-.3,3.756,3.756,0,0,0,1.109-.826v.76a.19.19,0,0,0,.059.151.417.417,0,0,0,.191.076,1.891,1.891,0,0,0,.349.025,1.74,1.74,0,0,0,.345-.025.472.472,0,0,0,.187-.076A.177.177,0,0,0,72,41.308Zm-7.107-2.611a.221.221,0,0,0-.1-.08.557.557,0,0,0-.2-.044c-.086,0-.191-.008-.321-.008-.153,0-.275,0-.368.013a.717.717,0,0,0-.218.046.329.329,0,0,0-.124.084.317.317,0,0,0-.059.128l-2.116,6.258-.025.1-.034-.1-2.143-6.258a.611.611,0,0,0-.071-.128A.29.29,0,0,0,59,33.5a.749.749,0,0,0-.227-.046c-.1-.01-.231-.013-.393-.013-.13,0-.237,0-.324.008a.8.8,0,0,0-.212.038.229.229,0,0,0-.113.08.21.21,0,0,0-.034.118l0,.063a.758.758,0,0,0,.027.115c.013.052.031.111.053.177l2.582,7.212a.42.42,0,0,0,.092.143.408.408,0,0,0,.166.094,1.329,1.329,0,0,0,.273.05c.113.011.254.017.422.017s.309,0,.422-.011a1.327,1.327,0,0,0,.279-.048.363.363,0,0,0,.164-.092.455.455,0,0,0,.09-.153l2.59-7.212c.011-.04.021-.076.029-.111s.015-.063.021-.092.01-.055.013-.08,0-.05,0-.073a.21.21,0,0,0-.029-.113m-9.785,5.141a2.678,2.678,0,0,1-.426.945,1.953,1.953,0,0,1-.74.615,2.716,2.716,0,0,1-2.187-.021,1.922,1.922,0,0,1-.719-.649,2.778,2.778,0,0,1-.382-.958,5.583,5.583,0,0,1-.116-1.172,4.834,4.834,0,0,1,.141-1.2,2.789,2.789,0,0,1,.429-.949,1.967,1.967,0,0,1,.737-.62,2.421,2.421,0,0,1,1.069-.219,2.359,2.359,0,0,1,1.122.24,1.866,1.866,0,0,1,.716.655,2.891,2.891,0,0,1,.38.962,5.681,5.681,0,0,1,.115,1.164,4.973,4.973,0,0,1-.137,1.206m1.347-3.012a3.48,3.48,0,0,0-.7-1.292,2.984,2.984,0,0,0-1.158-.809,4.4,4.4,0,0,0-1.634-.279,4.256,4.256,0,0,0-1.695.313,3.26,3.26,0,0,0-1.21.876,3.724,3.724,0,0,0-.727,1.345,5.786,5.786,0,0,0-.24,1.71,5.954,5.954,0,0,0,.229,1.72,3.431,3.431,0,0,0,.691,1.292,2.991,2.991,0,0,0,1.16.809,4.386,4.386,0,0,0,1.632.279,4.245,4.245,0,0,0,1.693-.317,3.33,3.33,0,0,0,1.214-.882,3.724,3.724,0,0,0,.729-1.345,5.649,5.649,0,0,0,.246-1.708,5.849,5.849,0,0,0-.233-1.712m-9.4.962a5.976,5.976,0,0,0-.139-1.389,2.737,2.737,0,0,0-.458-1.008,2.312,2.312,0,0,0-.84-.687,2.859,2.859,0,0,0-1.279-.258,2.739,2.739,0,0,0-1.286.334,4.683,4.683,0,0,0-1.279,1.05v-1a.222.222,0,0,0-.029-.115.255.255,0,0,0-.1-.084.5.5,0,0,0-.189-.05,2.784,2.784,0,0,0-.309-.013,2.709,2.709,0,0,0-.311.013.567.567,0,0,0-.195.05.231.231,0,0,0-.1.084.241.241,0,0,0-.025.115V41.3a.212.212,0,0,0,.029.115.248.248,0,0,0,.111.08.823.823,0,0,0,.214.05,3.4,3.4,0,0,0,.683,0,.769.769,0,0,0,.212-.05.265.265,0,0,0,.109-.08.186.186,0,0,0,.034-.115V35.993a5.672,5.672,0,0,1,1.1-1.088,1.792,1.792,0,0,1,1.046-.372,1.589,1.589,0,0,1,.712.153,1.267,1.267,0,0,1,.5.439,2.127,2.127,0,0,1,.3.683,4.4,4.4,0,0,1,.1,1.046V41.3a.186.186,0,0,0,.034.115.278.278,0,0,0,.109.08.787.787,0,0,0,.212.05,2.816,2.816,0,0,0,.345.017,2.746,2.746,0,0,0,.338-.017.754.754,0,0,0,.21-.05.273.273,0,0,0,.111-.08.2.2,0,0,0,.032-.115Zm-9.111,0a5.976,5.976,0,0,0-.139-1.389,2.74,2.74,0,0,0-.46-1.008,2.306,2.306,0,0,0-.838-.687,2.864,2.864,0,0,0-1.279-.258,2.733,2.733,0,0,0-1.286.334,4.655,4.655,0,0,0-1.279,1.05v-1a.222.222,0,0,0-.029-.115.287.287,0,0,0-.1-.084.5.5,0,0,0-.189-.05,2.784,2.784,0,0,0-.309-.013,2.709,2.709,0,0,0-.311.013.556.556,0,0,0-.195.05.22.22,0,0,0-.1.084.241.241,0,0,0-.025.115V41.3a.212.212,0,0,0,.029.115.238.238,0,0,0,.111.08.823.823,0,0,0,.214.05,2.745,2.745,0,0,0,.338.017,2.817,2.817,0,0,0,.345-.017.787.787,0,0,0,.212-.05.278.278,0,0,0,.109-.08A.185.185,0,0,0,32.8,41.3V35.993a5.619,5.619,0,0,1,1.1-1.088,1.792,1.792,0,0,1,1.046-.372,1.589,1.589,0,0,1,.712.153,1.281,1.281,0,0,1,.5.439,2.17,2.17,0,0,1,.3.683,4.4,4.4,0,0,1,.1,1.046V41.3a.185.185,0,0,0,.034.115.265.265,0,0,0,.109.08.769.769,0,0,0,.212.05,2.817,2.817,0,0,0,.345.017,2.767,2.767,0,0,0,.338-.017.753.753,0,0,0,.21-.05.273.273,0,0,0,.111-.08.2.2,0,0,0,.032-.115Zm-9.313-5.855A.205.205,0,0,0,28.6,30.7a.21.21,0,0,0-.118-.08,1.242,1.242,0,0,0-.223-.05,2.236,2.236,0,0,0-.349-.021,2.123,2.123,0,0,0-.334.021,1.427,1.427,0,0,0-.227.05.241.241,0,0,0-.126.08.183.183,0,0,0-.038.118V41.291a.225.225,0,0,0,.032.118.248.248,0,0,0,.118.08,1.283,1.283,0,0,0,.229.05,2.884,2.884,0,0,0,.695,0,1.242,1.242,0,0,0,.223-.05.23.23,0,0,0,.118-.08.21.21,0,0,0,.034-.118Z" transform="translate(24.464 27.079)" fill="#004e9e"/>
      <path id="Pfad_114" data-name="Pfad 114" d="M18.45,68.436C25.744,58.9,36.273,43.519,36.273,34.217S25.744,9.539,18.45,0H6.738c7.256,9.489,17.823,25,17.823,34.217,0,9.082-10.567,24.73-17.823,34.219Z" transform="translate(5.894 0.045)" fill="#004e9e"/>
      <path id="Pfad_115" data-name="Pfad 115" d="M18.678,13.275S17.264,11,16.442,9.716c-.889-1.4-3.62-5.3-3.62-5.3S.073,21.668,0,30.165C-.069,38.5,12.829,56,12.829,56l3.216-4.691,2.634-4.2A75.736,75.736,0,0,1,14.722,39.9c-1.517-3.178-2.994-6.836-3.006-9.934-.023-5.464,6.962-16.691,6.962-16.691" transform="translate(-0.227 4.053)" fill="#758bc6"/>
    </g>
  </g>
</svg>
