<svg xmlns="http://www.w3.org/2000/svg" viewBox="0 0 862.05 198.43">
  <path fill="#a01924" d="M322.46 132.7c0 1.74-1.46 3.2-3.5 3.2h-3.64c-2.04 0-3.5-1.46-3.5-3.2v-29.72c0-19.22-10.63-20.97-21.12-20.97-10.77 0-24.9 9.18-24.9 21.7v28.99c0 1.74-1.46 3.2-3.5 3.2h-3.64c-2.04 0-3.5-1.46-3.5-3.2V53.9c0-1.75 1.46-3.2 3.5-3.2h3.64c2.04 0 3.5 1.45 3.5 3.2v31.02c8.6-11.8 25.05-11.65 25.63-11.65 21.27 0 31.03 9.9 31.03 26.95v32.48Zm89.15-25.35c0 1.75-1.45 3.2-3.5 3.2h-56.07c3.64 16.9 20.1 17.49 25.05 17.49 8.01 0 18.06-1.6 20.98-7.72a3.73 3.73 0 0 1 3.2-1.9h3.79c2.04 0 3.5 1.6 3.5 3.35-3.8 8.16-13.84 15-31.47 15-27.97 0-36.12-17.47-36.12-32.04 0-14.27 9.03-31.46 35.83-31.46 27.53 0 34.81 16.6 34.81 31.46v2.62Zm-10.2-5.53C399.81 83.32 383.36 82 376.65 82c-6.7 0-23.3 1.31-24.9 19.8h49.66Zm78.91 26.36c-7.57 8.6-24.46 8.6-30 8.6-9.9 0-24.9-3.06-24.9-17.63 0-19.95 34.37-19.95 54.76-19.95v-2.92c0-10.34-9.61-14.27-21.12-14.27-4.37 0-13.55.15-17.48 5.82a3.4 3.4 0 0 1-2.91 1.46h-4.96c-2.03 0-3.5-1.46-3.5-3.2 3.5-8.74 15.6-12.82 28.85-12.82 27.67 0 31.9 15.15 31.9 24.76v34.96c0 1.6-1.32 2.91-3.2 2.91h-2.92c-1.9 0-2.77-1.3-3.2-2.91l-1.32-4.8Zm-27.52-.14c10.48 0 23.6-4.81 27.52-9.47v-11.5c-15.58 0-44.28 1.01-44.28 12.23 0 8.59 13.55 8.74 16.76 8.74Zm84.42 8.74c-14.42 0-18.93-7.58-18.93-24.62v-28.7h-12.1a2.96 2.96 0 0 1-2.9-3.05v-3.35a2.96 2.96 0 0 1 2.9-3.06h12.1V56.08c0-2.18 1.46-3.35 3.35-3.93l3.79-1.17c2.33-.72 3.35 1.31 3.5 3.2V74h16.74c1.6 0 2.91 1.3 2.91 3.06v3.35a2.96 2.96 0 0 1-2.9 3.06h-16.76v30.58c0 10.78 4.37 13.99 10.93 13.99 1.6 0 3.49 0 4.8-.15 1.6 0 2.92 1.31 2.92 3.06v2.48a2.96 2.96 0 0 1-2.92 3.05l-7.43.3Z"/>
  <path fill="#2c6f8f" d="M567.51 53.9c0-1.75 1.46-3.2 3.5-3.2h3.64c2.04 0 3.5 1.45 3.5 3.2v30.73c8-10.63 22.28-11.36 27.96-11.36 19.08 0 33.93 12.23 33.93 31.17 0 21.85-17.18 32.34-32.47 32.34-6.12 0-18.5 0-29-12.24l-1.44 8.3c-.3 1.6-1.46 3.06-3.35 3.06h-2.92c-1.9 0-3.35-1.46-3.35-3.06V53.9Zm61.9 49.67c0-17.78-15.58-21.56-25.63-21.56-11.22 0-25.64 7.57-25.64 20.54v3.35c0 12.38 13.84 22.14 27.24 22.14 11.07 0 24.04-7.14 24.04-23.6v-.87Zm95.15 3.78c0 1.75-1.45 3.2-3.49 3.2h-56.08c3.64 16.9 20.1 17.49 25.05 17.49 8.01 0 18.07-1.6 20.98-7.72a3.74 3.74 0 0 1 3.2-1.9h3.8c2.03 0 3.49 1.6 3.49 3.35-3.79 8.16-13.84 15-31.47 15-27.96 0-36.12-17.47-36.12-32.04 0-14.27 9.03-31.46 35.83-31.46 27.53 0 34.81 16.6 34.81 31.46v2.62Zm-10.2-5.53C712.77 83.32 696.32 82 689.62 82c-6.7 0-23.3 1.31-24.9 19.8h49.66Zm78.92 26.36c-7.58 8.6-24.47 8.6-30 8.6-9.91 0-24.91-3.06-24.91-17.63 0-19.95 34.37-19.95 54.76-19.95v-2.92c0-10.34-9.61-14.27-21.12-14.27-4.37 0-13.54.15-17.47 5.82a3.4 3.4 0 0 1-2.92 1.46h-4.96c-2.03 0-3.49-1.46-3.49-3.2 3.5-8.74 15.59-12.82 28.84-12.82 27.68 0 31.9 15.15 31.9 24.76v34.96c0 1.6-1.31 2.91-3.2 2.91h-2.92c-1.89 0-2.77-1.3-3.2-2.91l-1.31-4.8Zm-27.53-.14c10.49 0 23.6-4.81 27.53-9.47v-11.5c-15.58 0-44.28 1.01-44.28 12.23 0 8.59 13.54 8.74 16.75 8.74Zm84.43 8.74c-14.42 0-18.94-7.58-18.94-24.62v-28.7h-12.09a2.96 2.96 0 0 1-2.9-3.05v-3.35a2.95 2.95 0 0 1 2.9-3.06h12.1V56.08c0-2.18 1.45-3.35 3.34-3.93l3.8-1.17c2.32-.72 3.34 1.31 3.49 3.2V74h16.75c1.6 0 2.91 1.3 2.91 3.06v3.35a2.96 2.96 0 0 1-2.91 3.06h-16.75v30.58c0 10.78 4.37 13.99 10.92 13.99 1.6 0 3.5 0 4.8-.15 1.6 0 2.92 1.31 2.92 3.06v2.48a2.96 2.96 0 0 1-2.92 3.05l-7.42.3Z"/>
  <path fill="#a01924" d="M186.46 110.68c-5.33 0-10.1-2.34-13.38-6.04l-55.89 33.9a8.95 8.95 0 0 1-5.61 9.9v49.11a98.44 98.44 0 0 0 86.62-91.28 17.82 17.82 0 0 1-11.74 4.4Z"/>
  <path fill="#831212" d="M77.03 194.47a96.35 96.35 0 0 1-14.3-4.7 97.13 97.13 0 0 1-52.43-52.65 96.39 96.39 0 0 1 .3-73.96A96.6 96.6 0 0 1 31.71 32 97.6 97.6 0 0 1 99.98 3.82a98.38 98.38 0 0 1 68.9 27.57 97.04 97.04 0 0 1 21.62 31.3 96.39 96.39 0 0 1 4.93 14.96c.3.16.58.33.85.51a100.37 100.37 0 0 0-25.96-48.22 99.5 99.5 0 0 0-32.05-22.03A100.56 100.56 0 0 0 99.98 0a100.74 100.74 0 0 0-38.44 7.54 100.27 100.27 0 0 0-32.51 21.79A99.65 99.65 0 0 0 0 100.09a99.5 99.5 0 0 0 7.73 38.1 99.73 99.73 0 0 0 54.15 53.62 99.47 99.47 0 0 0 15.15 4.8v-2.14Zm123.8-90.79.08-.1-.08.1Zm-2.85 2.78a98.06 98.06 0 0 1-7.21 30.95 97.93 97.93 0 0 1-21.46 31.73 97.26 97.26 0 0 1-57.73 27.52v1.77a98.88 98.88 0 0 0 26.34-7.03 99.25 99.25 0 0 0 31.96-21.7 100.08 100.08 0 0 0 28.53-63.63l-.43.4Z"/>
  <path fill="#a01924" d="M105.19 148.58a8.92 8.92 0 0 1 0-16.66V72.65a17.86 17.86 0 0 1-14.7-17.55c0-9.86 8.01-17.85 17.9-17.85 9.88 0 17.9 8 17.9 17.85 0 8.77-6.35 16.05-14.7 17.55v59.27c.84.32 1.62.77 2.32 1.32l55.85-33.78a17.73 17.73 0 0 1-1.2-6.38 17.87 17.87 0 0 1 27.32-15.16 98.4 98.4 0 0 0-95.9-76c-54.37 0-98.45 43.95-98.45 98.17 0 46.33 32.2 85.14 75.5 95.46v-67.67a8.92 8.92 0 0 1-5.61-10.18l-24.16-15.4a17.87 17.87 0 0 1-30.97-12.16c0-9.86 8-17.85 17.9-17.85a17.87 17.87 0 0 1 16.54 24.65l24.16 15.4a8.94 8.94 0 0 1 14.24 7.19 8.92 8.92 0 0 1-5.7 8.3v69a99.26 99.26 0 0 0 21.76 1.28v-49.54Z"/>
  <path fill="#2c6f8f" d="M186.46 50.26a42.83 42.83 0 0 0-38.17 62.25l21.47-13.02a17.9 17.9 0 1 1 3.32 5.46l-21.47 13.02a42.83 42.83 0 1 0 34.85-67.72Z"/>
  <path fill="#fff" d="M186.46 137.2a44.16 44.16 0 0 1-44.11-44.11c0-24.32 19.78-44.11 44.1-44.11s44.12 19.79 44.12 44.1a44.16 44.16 0 0 1-44.11 44.12Zm0-85.66a41.6 41.6 0 0 0-41.56 41.55c0 22.91 18.64 41.55 41.56 41.55S228 116 228 93.1a41.6 41.6 0 0 0-41.55-41.55Z"/>
</svg>
